# xmcd CD database file
# Copyright (C) 1993-1998 Ti Kan
# 
# Track frame offsets:
# 182
# 94812
# 108245
# 132882
# 144527
# 163055
# 177340
# 
# Disc length: 2633 seconds
# 
# Revision: 0
# Processed by: cddbd v1.4b41PL1 Copyright (c) Steve Scherf et al.
# Submitted via: SuperSonic v3.01
# 
DISCID=5b0a4707
DTITLE=Loggins and Messina - On Stage (Disc2)
DYEAR=1900
DGENRE=
TTITLE0=Vahevala
TTITLE1=Back To Georgia
TTITLE2=Lovin' Me
TTITLE3=To Make A Woman Feel Wanted
TTITLE4=Peace Of Mind
TTITLE5=Your Mama Don't Dance
TTITLE6=Nobody But You
EXTD=
EXTT0=
EXTT1=
EXTT2=
EXTT3=
EXTT4=
EXTT5=
EXTT6=
PLAYORDER=
